<svg xmlns="http://www.w3.org/2000/svg" viewbox="0 0 32 32" width="32" height="32"><g fill="none" fill-rule="evenodd" stroke="currentColor" stroke-linecap="round" stroke-linejoin="round" stroke-width="1.999995"><path d="M12.9999675 30.9999225c-1.1045572 0-1.999995-.8954378-1.999995-1.999995v-15.99996c0-1.1045572.8954378-1.999995 1.999995-1.999995h15.99996c1.1045572 0 1.999995.8954378 1.999995 1.999995v15.99996c0 1.1045572-.8954378 1.999995-1.999995 1.999995h-15.99996zM10.9999725 16.9999575H15.99996"/><path d="M10.9999725 26.9999325h5.999985v3.99999M24.9999375 24.9999375h5.999985M30.9999225 15.99996H23.99994v-4.9999875M19.99995 10.9999725V21.999945h-4.9999875M3.99999 6.9999825v23.99994M.9999975 27.99993L3.99999 30.9999225 6.9999825 27.99993M6.9999825 9.999975L3.99999 6.9999825.9999975 9.999975M30.9999225 3.99999h-23.99994M9.999975.9999975L6.9999825 3.99999 9.999975 6.9999825M27.99993 6.9999825L30.9999225 3.99999 27.99993.9999975M24.9999375 21.999945v8.9999775"/></g></svg>